<?xml version="1.0" standalone="no"?>
<!DOCTYPE svg PUBLIC "-//W3C//DTD SVG 20010904//EN"
 "http://www.w3.org/TR/2001/REC-SVG-20010904/DTD/svg10.dtd">
<svg version="1.0" xmlns="http://www.w3.org/2000/svg"
 width="300.000000pt" height="233.000000pt" viewBox="0 0 300.000000 233.000000"
 preserveAspectRatio="xMidYMid meet">
<metadata>
Created by potrace 1.10, written by Peter Selinger 2001-2011
</metadata>
<g transform="translate(0.000000,233.000000) scale(0.100000,-0.100000)"
fill="#000000" stroke="none">
<path d="M1362 2320 c-209 -22 -403 -88 -564 -191 -35 -23 -61 -32 -81 -30
-24 2 -38 -6 -78 -48 -28 -30 -49 -60 -49 -73 -1 -13 -18 -40 -41 -63 -131
-129 -228 -340 -260 -563 l-11 -82 -44 -11 c-56 -14 -67 -28 -98 -127 -14 -45
-35 -95 -46 -110 -60 -83 -50 -383 16 -449 14 -13 38 -57 55 -98 38 -89 53
-104 115 -113 l47 -7 17 -72 c9 -39 24 -83 33 -97 41 -63 127 -99 259 -111 40
-4 109 -13 153 -21 247 -45 745 -65 1115 -45 229 12 325 23 450 51 47 11 110
24 141 30 108 21 166 79 192 196 13 57 15 59 53 66 83 17 84 17 108 71 13 29
29 71 36 92 7 22 21 48 31 58 36 34 54 122 54 267 0 126 -2 139 -27 190 -14
30 -36 88 -48 128 -23 76 -30 83 -92 96 -26 6 -28 10 -28 57 0 75 -37 243 -72
329 -37 88 -92 182 -144 246 -21 25 -38 54 -39 63 -2 23 -84 119 -107 127 -10
3 -22 3 -27 -1 -5 -3 -48 19 -94 50 -137 89 -283 146 -458 180 -101 19 -352
27 -467 15z m450 -34 c116 -21 236 -60 333 -108 94 -46 205 -117 205 -129 0
-5 -13 -36 -30 -69 -23 -45 -28 -64 -21 -82 13 -32 61 -75 93 -83 29 -7 51 9
94 69 l20 28 51 -68 c83 -113 139 -237 168 -376 17 -76 31 -236 21 -227 -4 4
-17 26 -29 50 -19 37 -33 50 -94 80 -136 68 -350 120 -645 155 -199 25 -646
25 -848 0 -348 -42 -679 -133 -744 -205 -27 -30 -45 -90 -47 -156 -1 -60 -1
-60 -10 -20 -5 22 -14 59 -19 81 -7 30 -5 70 5 140 29 192 112 377 231 513
l52 60 37 -48 c43 -57 75 -74 108 -62 29 11 87 76 87 98 0 9 -16 46 -36 82
l-36 65 24 18 c13 10 77 46 143 78 130 65 284 111 436 129 111 13 342 6 451
-13z m-1058 -271 c20 -36 36 -71 36 -77 0 -18 -52 -68 -71 -68 -9 0 -38 25
-64 56 l-47 55 23 27 c30 34 72 71 81 72 3 0 22 -29 42 -65z m1596 -26 c-35
-68 -33 -86 12 -124 23 -20 38 -25 57 -20 20 4 22 3 11 -5 -8 -5 -23 -10 -33
-10 -23 0 -87 62 -87 84 0 18 57 136 65 136 3 0 -8 -27 -25 -61z m99 16 c22
-24 41 -49 41 -55 0 -19 -64 -90 -81 -90 -25 0 -69 39 -69 61 0 21 51 129 61
129 3 0 25 -20 48 -45z m-1673 -132 c-35 -32 -61 -40 -81 -25 -6 4 -28 30 -50
57 l-39 50 50 -52 c28 -29 55 -53 62 -53 23 0 82 62 83 89 2 25 2 25 6 -4 4
-24 -2 -36 -31 -62z m583 -416 c14 -14 421 -19 439 -4 6 5 12 22 12 38 0 35 7
36 194 14 233 -27 458 -81 596 -142 132 -58 144 -102 119 -459 -24 -357 -44
-532 -63 -553 -45 -50 -186 -90 -411 -118 -178 -22 -946 -26 -1175 -5 -196 17
-394 47 -515 76 -125 31 -137 42 -159 163 -25 141 -49 492 -42 633 7 155 11
174 47 210 80 79 494 182 839 208 l95 7 6 -28 c4 -16 12 -34 18 -40z m419 61
c-6 -18 -385 -18 -400 0 -8 9 32 12 197 12 160 0 206 -3 203 -12z m-394 -25
c12 -13 389 -12 405 1 10 8 12 6 10 -9 -4 -19 -13 -20 -219 -20 -197 0 -215 1
-218 18 -4 17 9 23 22 10z m-1090 -260 c16 -58 32 -210 56 -538 13 -161 5
-304 -16 -312 -8 -3 -33 -2 -57 1 l-42 6 -1 268 c-1 235 -12 440 -30 538 -5
30 -3 32 33 42 53 14 51 14 57 -5z m2540 -10 c18 -5 19 -14 13 -202 -7 -189
-36 -622 -43 -630 -4 -5 -107 -21 -110 -18 -2 1 4 70 11 152 21 214 45 564 45
638 0 35 3 67 6 70 6 6 31 3 78 -10z m-2625 -278 c14 -200 15 -533 2 -519 -5
5 -20 34 -32 64 -20 50 -22 69 -20 205 1 83 -3 198 -9 257 -11 102 -11 112 11
185 l24 78 7 -56 c4 -30 12 -127 17 -214z m2676 155 c15 -46 16 -73 5 -288
-10 -193 -16 -248 -32 -295 -12 -31 -23 -56 -25 -53 -2 2 1 57 6 122 16 176
31 516 25 542 -12 43 5 22 21 -28z m35 -296 c-6 -114 -13 -210 -15 -213 -12
-11 -12 11 -5 124 5 66 9 165 9 220 1 71 4 96 12 88 7 -7 7 -70 -1 -219z
m-2786 164 c10 -87 7 -388 -4 -388 -6 0 -10 65 -10 174 0 95 -3 194 -6 220 -4
28 -3 46 3 46 6 0 13 -24 17 -52z m-26 -233 c0 -130 0 -130 -15 -85 -18 52
-23 243 -8 305 l9 40 7 -65 c4 -36 7 -123 7 -195z m2840 82 c-3 -70 -10 -131
-17 -143 -12 -19 -12 -19 -7 1 2 11 8 75 11 143 4 67 10 122 12 122 3 0 4 -55
1 -123z m-2558 -403 c15 -71 47 -99 140 -123 280 -71 759 -108 1270 -98 480
10 766 53 848 129 27 26 28 16 6 -60 -20 -68 -71 -124 -129 -142 -60 -19
-1189 -35 -1635 -23 -339 9 -357 10 -408 32 -68 30 -95 64 -117 145 -15 55
-16 73 -7 105 7 21 13 58 13 82 1 24 3 35 5 24 2 -11 9 -43 14 -71z m1920
-340 c-273 -66 -1072 -70 -1475 -7 -28 5 275 10 690 13 407 3 763 6 790 6 l50
2 -55 -14z"/>
<path d="M1288 1369 c-263 -13 -578 -57 -765 -108 -92 -25 -108 -79 -107 -346
1 -303 38 -457 115 -482 123 -40 543 -57 1249 -50 526 5 722 15 799 40 28 9
41 22 58 57 36 73 57 247 57 475 1 272 5 265 -194 319 -284 77 -789 117 -1212
95z m782 -34 c80 -8 150 -18 155 -20 10 -5 -43 -1 -210 15 -179 18 -579 23
-770 11 -268 -18 -539 -56 -683 -97 -48 -13 -56 -19 -72 -57 -58 -130 -47
-566 16 -689 19 -37 38 -45 136 -63 l83 -14 -70 5 c-143 12 -172 38 -200 181
-23 116 -32 414 -15 511 16 99 32 115 132 140 159 40 439 80 668 96 132 9 692
-3 830 -19z m-210 -15 c217 -13 390 -33 540 -65 155 -32 192 -46 212 -81 67
-115 27 -685 -50 -708 -52 -16 -228 -37 -400 -47 -229 -14 -1086 -7 -1282 10
-253 22 -333 39 -352 74 -42 79 -67 331 -49 508 7 72 19 139 30 164 l18 41 99
22 c359 78 791 107 1234 82z m763 -101 c35 -16 47 -42 58 -132 20 -157 -22
-556 -65 -622 -16 -24 -88 -46 -144 -44 -15 1 1 6 35 13 35 7 72 21 83 31 45
41 74 218 74 455 0 190 -9 246 -49 286 -27 27 -26 29 8 13z"/>
<path d="M967 1059 c-136 -33 -227 -149 -227 -289 0 -46 7 -71 33 -121 75
-145 247 -199 389 -122 60 33 93 70 126 142 21 45 24 64 20 125 -6 83 -29 134
-85 188 -67 65 -174 97 -256 77z m169 -43 c131 -61 190 -227 125 -354 -82
-160 -294 -196 -419 -71 -167 166 -51 449 183 449 42 0 75 -7 111 -24z"/>
<path d="M966 978 c-23 -6 -57 -28 -82 -53 -64 -65 -81 -152 -45 -230 68 -147
260 -167 358 -38 118 158 -38 375 -231 321z m144 -30 c99 -51 137 -156 90
-254 -82 -169 -340 -123 -358 65 -6 64 11 110 55 155 59 59 138 71 213 34z"/>
<path d="M991 892 c-37 -20 -71 -73 -71 -110 0 -40 28 -91 62 -112 25 -16 44
-20 82 -17 98 9 148 110 96 195 -21 34 -72 62 -112 62 -13 0 -39 -8 -57 -18z
m128 -28 c83 -70 40 -194 -67 -194 -37 0 -50 6 -79 35 -33 33 -35 39 -30 81
10 94 107 137 176 78z"/>
<path d="M2011 1029 c-99 -49 -153 -137 -154 -249 -1 -87 30 -156 95 -215 185
-166 471 -39 473 210 1 217 -218 352 -414 254z m246 -19 c95 -47 143 -124 143
-226 0 -86 -18 -132 -75 -191 -38 -39 -63 -55 -104 -67 -68 -20 -94 -20 -157
-1 -184 54 -245 293 -111 433 82 86 197 106 304 52z"/>
<path d="M2095 981 c-191 -47 -226 -297 -55 -389 64 -34 152 -28 212 14 83 58
118 178 75 259 -44 85 -147 136 -232 116z m97 -21 c76 -21 137 -102 138 -181
0 -19 -12 -59 -26 -87 -60 -120 -215 -143 -305 -45 -40 43 -50 69 -50 129 0
131 116 219 243 184z"/>
<path d="M2061 892 c-72 -36 -98 -122 -56 -185 51 -78 180 -75 221 5 39 75 3
166 -74 188 -49 13 -51 13 -91 -8z m133 -41 c25 -26 31 -40 31 -75 0 -50 -22
-81 -73 -103 -87 -36 -178 59 -141 148 30 74 124 89 183 30z"/>
</g>
</svg>
